<svg width="16" height="16" viewBox="0 0 16 16" fill="none" xmlns="http://www.w3.org/2000/svg">
<path d="M6.66634 12C7.84966 11.9997 8.99888 11.6036 9.93101 10.8746L12.8617 13.8053L13.8043 12.8626L10.8737 9.93198C11.603 8.99976 11.9994 7.85027 11.9997 6.66665C11.9997 3.72598 9.60701 1.33331 6.66634 1.33331C3.72567 1.33331 1.33301 3.72598 1.33301 6.66665C1.33301 9.60731 3.72567 12 6.66634 12ZM6.66634 2.66665C8.87234 2.66665 10.6663 4.46065 10.6663 6.66665C10.6663 8.87265 8.87234 10.6666 6.66634 10.6666C4.46034 10.6666 2.66634 8.87265 2.66634 6.66665C2.66634 4.46065 4.46034 2.66665 6.66634 2.66665Z" fill="#141C2F"/>
<path d="M7.60854 5.724C7.8612 5.97733 8.00054 6.312 8.00054 6.66666H9.33387C9.33446 6.31628 9.26559 5.96926 9.13125 5.64565C8.99691 5.32205 8.79977 5.02828 8.5512 4.78133C7.54187 3.77333 5.79187 3.77333 4.7832 4.78133L5.72454 5.72533C6.2312 5.22 7.10454 5.22133 7.60854 5.724Z" fill="#141C2F"/>
</svg>
